<?xml version="1.0" encoding="UTF-8" standalone="no"?>
<!-- Created with Inkscape (http://www.inkscape.org/) -->

<svg
   width="100mm"
   height="100mm"
   viewBox="0 0 100 100"
   version="1.1"
   id="svg1"
   sodipodi:docname="icon.svg"
   inkscape:version="1.3 (0e150ed6c4, 2023-07-21)"
   xml:space="preserve"
   inkscape:export-filename="crane_icon.png"
   inkscape:export-xdpi="96"
   inkscape:export-ydpi="96"
   xmlns:inkscape="http://www.inkscape.org/namespaces/inkscape"
   xmlns:sodipodi="http://sodipodi.sourceforge.net/DTD/sodipodi-0.dtd"
   xmlns="http://www.w3.org/2000/svg"
   xmlns:svg="http://www.w3.org/2000/svg"><sodipodi:namedview
     id="namedview1"
     pagecolor="#000000"
     bordercolor="#000000"
     borderopacity="0.25"
     inkscape:showpageshadow="2"
     inkscape:pageopacity="0.0"
     inkscape:pagecheckerboard="false"
     inkscape:deskcolor="#d1d1d1"
     inkscape:document-units="mm"
     inkscape:zoom="1.4142136"
     inkscape:cx="-17.324116"
     inkscape:cy="136.11805"
     inkscape:window-width="2560"
     inkscape:window-height="1369"
     inkscape:window-x="-8"
     inkscape:window-y="-8"
     inkscape:window-maximized="1"
     inkscape:current-layer="layer4"
     showguides="true"><sodipodi:guide
       position="50,99.999999"
       orientation="-1,0"
       id="guide1"
       inkscape:locked="false"
       inkscape:label=""
       inkscape:color="rgb(0,134,229)" /><sodipodi:guide
       position="0,50"
       orientation="0,1"
       id="guide10"
       inkscape:locked="false"
       inkscape:label=""
       inkscape:color="rgb(0,134,229)" /></sodipodi:namedview><defs
     id="defs1"><clipPath
       clipPathUnits="userSpaceOnUse"
       id="clipPath28"><path
         sodipodi:type="star"
         style="fill:#000000;fill-opacity:1;stroke:#000000;stroke-width:0;stroke-linecap:round;stroke-linejoin:round;stroke-dasharray:none"
         id="path29"
         inkscape:flatsided="true"
         sodipodi:sides="6"
         sodipodi:cx="50"
         sodipodi:cy="50"
         sodipodi:r1="50"
         sodipodi:r2="43.30127"
         sodipodi:arg1="-1.5707963"
         sodipodi:arg2="-1.0471976"
         inkscape:rounded="0"
         inkscape:randomized="0"
         d="m 50.000001,0 43.30127,25.000001 -10e-7,50 L 49.999999,100 6.6987291,74.999999 l 1.4e-6,-50 z" /></clipPath><clipPath
       clipPathUnits="userSpaceOnUse"
       id="clipPath29"><path
         sodipodi:type="star"
         style="fill:#000000;fill-opacity:1;stroke:#000000;stroke-width:0;stroke-linecap:round;stroke-linejoin:round;stroke-dasharray:none"
         id="path30"
         inkscape:flatsided="true"
         sodipodi:sides="6"
         sodipodi:cx="-52.641701"
         sodipodi:cy="50"
         sodipodi:r1="50"
         sodipodi:r2="43.30127"
         sodipodi:arg1="-1.5707963"
         sodipodi:arg2="-1.0471976"
         inkscape:rounded="0"
         inkscape:randomized="0"
         d="m -52.641699,0 43.3012691,25.000001 -1.3e-6,50 L -52.641702,100 l -43.30127,-25.000001 2e-6,-50 z"
         transform="scale(-1,1)" /></clipPath><clipPath
       clipPathUnits="userSpaceOnUse"
       id="clipPath30"><path
         sodipodi:type="star"
         style="fill:#000000;fill-opacity:1;stroke:#000000;stroke-width:0;stroke-linecap:round;stroke-linejoin:round;stroke-dasharray:none"
         id="path31"
         inkscape:flatsided="true"
         sodipodi:sides="6"
         sodipodi:cx="50"
         sodipodi:cy="50"
         sodipodi:r1="50"
         sodipodi:r2="43.30127"
         sodipodi:arg1="-1.5707963"
         sodipodi:arg2="-1.0471976"
         inkscape:rounded="0"
         inkscape:randomized="0"
         d="m 50.000001,0 43.30127,25.000001 -10e-7,50 L 49.999999,100 6.6987291,74.999999 l 1.4e-6,-50 z" /></clipPath></defs><g
     inkscape:groupmode="layer"
     id="layer4"
     inkscape:label="Background"
     style="fill:#ffffff"
     clip-path="url(#clipPath30)"><rect
       style="fill:#6f9bcc;fill-opacity:1;stroke:#000000;stroke-width:0;stroke-linecap:round;stroke-linejoin:round;stroke-dasharray:none"
       id="rect11"
       width="100"
       height="100"
       x="0"
       y="0"
       inkscape:label="background" /></g><g
     inkscape:groupmode="layer"
     id="layer2-8"
     inkscape:label="Layer 1"
     style="fill:#ac9d93"
     transform="matrix(-1,0,0,1,102.6417,0)"
     clip-path="url(#clipPath29)"><path
       style="display:inline;fill:#c1b5b1;fill-opacity:1;stroke:#000000;stroke-width:0;stroke-linecap:round;stroke-linejoin:round;stroke-dasharray:none"
       d="M 17.412171,94.710712 C 12.629097,89.909175 42.999628,75.203402 55.726146,70.003571 64.068191,66.595158 66.189402,61.138143 64.723284,54.07274 63.878163,50 57.196543,44.916891 61.365819,35.359861 c 3.578592,-8.203034 12.701447,-4.063129 14.722261,-1.726038 1.341846,1.551858 1.419925,1.794624 1.68801,3.032255 0.408022,1.88366 -10.995011,0.988483 -7.974007,11.979382 0.375196,1.365025 4.795544,11.375681 5.063937,13.894181 1.409317,13.224497 -4.990717,27.510583 -7.888273,31.632394 -1.183261,1.683203 -19.394919,16.953325 -19.394919,16.953325 0,0 -19.726452,-5.93013 -30.170657,-16.414648 z"
       id="path11-2"
       sodipodi:nodetypes="ssssssssscs"
       inkscape:label="leftcranebody" /><path
       style="display:inline;fill:#aa0000;fill-opacity:1;stroke:#000000;stroke-width:0;stroke-linecap:round;stroke-linejoin:round;stroke-dasharray:none"
       d="m 69.947911,30.628742 c 0.922623,0.136934 2.59531,0.507465 3.889981,1.243572 1.478762,0.840775 2.497652,1.952406 2.639011,2.217176 0.20389,0.381892 0.420095,1.463574 0.02845,1.586661 -0.391644,0.123089 -3.06322,0.08329 -4.539522,-0.67089 -0.990674,-0.506095 -2.058331,-1.766777 -2.371225,-2.362901 -0.433188,-0.825309 0.04623,-2.059194 0.353306,-2.013618 0,0 -10e-7,0 -10e-7,0 z"
       id="path13-4"
       inkscape:label="leftcranehead"
       sodipodi:nodetypes="ssssssss" /><path
       style="display:inline;fill:#000000;fill-opacity:1;stroke:#000000;stroke-width:0;stroke-linecap:round;stroke-linejoin:round;stroke-dasharray:none"
       d="m 91.018867,36.277425 c 0,0 -1.37985,-1.009266 -2.193206,-1.118981 C 87.924551,35.036891 78.774904,34.29416 76.4714,34.089 c -0.445395,-0.03967 -0.645323,1.008943 -0.525234,1.2261 0.314243,0.568243 0.47303,0.437351 0.843021,0.690281 0.427207,0.292044 0.283781,0.856879 0.636942,1.2482 0.277223,0.307178 7.645864,0.05614 10.314094,0.03524 2.265496,-0.01775 3.278644,-1.011393 3.278644,-1.011393 z"
       id="path12-1"
       inkscape:label="leftcranebeak"
       sodipodi:nodetypes="csssssscc" /><ellipse
       style="fill:#ffcc00;fill-opacity:1;stroke:#000000;stroke-width:0;stroke-linecap:round;stroke-linejoin:round;stroke-dasharray:none"
       id="path14-8"
       cx="71.854942"
       cy="34.586002"
       rx="1"
       ry="1.0004557"
       inkscape:label="leftcraneiris" /><circle
       style="fill:#000000;fill-opacity:1;stroke:#000000;stroke-width:0;stroke-linecap:round;stroke-linejoin:round;stroke-dasharray:none"
       id="path15-5"
       cy="34.585548"
       cx="71.854942"
       r="0.710612"
       inkscape:label="leftcranepupil" /></g><g
     inkscape:groupmode="layer"
     id="layer2"
     inkscape:label="Layer 2"
     style="fill:#ac9d93"
     clip-path="url(#clipPath28)"><path
       style="display:inline;fill:#d2cdcd;fill-opacity:1;stroke:#000000;stroke-width:0;stroke-linecap:round;stroke-linejoin:round;stroke-dasharray:none"
       d="M 14.770574,94.710712 C 9.9875007,89.909175 40.358031,75.203402 53.084549,70.003571 61.426594,66.595158 63.547805,61.138143 62.081687,54.07274 61.236566,50 54.554946,44.916891 58.724222,35.359861 c 3.578592,-8.203034 12.701447,-4.063129 14.722261,-1.726038 1.341846,1.551858 1.419925,1.794624 1.68801,3.032255 0.408022,1.88366 -10.995011,0.988483 -7.974007,11.979382 0.375196,1.365025 4.795544,11.375681 5.063937,13.894181 1.409317,13.224497 -4.990717,27.510583 -7.888273,31.632394 -1.183261,1.683203 -19.394919,16.953325 -19.394919,16.953325 0,0 -19.726452,-5.93013 -30.170657,-16.414648 z"
       id="path11"
       sodipodi:nodetypes="ssssssssscs"
       inkscape:label="rightcranebody" /><path
       style="display:inline;fill:#aa0000;fill-opacity:1;stroke:#000000;stroke-width:0;stroke-linecap:round;stroke-linejoin:round;stroke-dasharray:none"
       d="m 67.306314,30.628742 c 0.922623,0.136934 2.59531,0.507465 3.889981,1.243572 1.478762,0.840775 2.497652,1.952406 2.639011,2.217176 0.20389,0.381892 0.420095,1.463574 0.02845,1.586661 -0.391644,0.123089 -3.06322,0.08329 -4.539522,-0.67089 -0.990674,-0.506095 -2.058331,-1.766777 -2.371225,-2.362901 -0.433188,-0.825309 0.04623,-2.059194 0.353306,-2.013618 0,0 -10e-7,0 -10e-7,0 z"
       id="path13"
       inkscape:label="rightcranehead"
       sodipodi:nodetypes="ssssssss" /><path
       style="display:inline;fill:#000000;fill-opacity:1;stroke:#000000;stroke-width:0;stroke-linecap:round;stroke-linejoin:round;stroke-dasharray:none"
       d="m 88.37727,36.277425 c 0,0 -1.37985,-1.009266 -2.193206,-1.118981 C 85.282954,35.036891 76.133307,34.29416 73.829803,34.089 c -0.445395,-0.03967 -0.645323,1.008943 -0.525234,1.2261 0.314243,0.568243 0.47303,0.437351 0.843021,0.690281 0.427207,0.292044 0.283781,0.856879 0.636942,1.2482 0.277223,0.307178 7.645864,0.05614 10.314094,0.03524 2.265496,-0.01775 3.278644,-1.011393 3.278644,-1.011393 z"
       id="path12"
       inkscape:label="rightcranebeak"
       sodipodi:nodetypes="csssssscc" /><ellipse
       style="fill:#ffcc00;fill-opacity:1;stroke:#000000;stroke-width:0;stroke-linecap:round;stroke-linejoin:round;stroke-dasharray:none"
       id="path14"
       cx="69.213348"
       cy="34.586002"
       rx="1"
       ry="1.0004557"
       inkscape:label="rightcraneiris" /><circle
       style="fill:#000000;fill-opacity:1;stroke:#000000;stroke-width:0;stroke-linecap:round;stroke-linejoin:round;stroke-dasharray:none"
       id="path15"
       cy="34.585548"
       cx="69.213348"
       r="0.710612"
       inkscape:label="rightcranepupil" /></g><g
     inkscape:label="Layer 3"
     inkscape:groupmode="layer"
     id="layer1"
     style="display:inline" /></svg>
